<mxfile host="app.diagrams.net" agent="Mozilla/5.0 (Windows NT 10.0; Win64; x64) AppleWebKit/537.36 (KHTML, like Gecko) Chrome/131.0.0.0 Safari/537.36" version="25.0.3">
  <diagram id="C5RBs43oDa-KdzZeNtuy" name="Page-1">
    <mxGraphModel dx="2203" dy="1558" grid="1" gridSize="10" guides="1" tooltips="1" connect="1" arrows="1" fold="1" page="1" pageScale="1" pageWidth="827" pageHeight="1169" math="0" shadow="0">
      <root>
        <mxCell id="WIyWlLk6GJQsqaUBKTNV-0" />
        <mxCell id="WIyWlLk6GJQsqaUBKTNV-1" parent="WIyWlLk6GJQsqaUBKTNV-0" />
        <mxCell id="8ugVBGTUYjzquRtOjpoh-9" style="edgeStyle=orthogonalEdgeStyle;rounded=0;orthogonalLoop=1;jettySize=auto;html=1;exitX=0.5;exitY=1;exitDx=0;exitDy=0;" parent="WIyWlLk6GJQsqaUBKTNV-1" source="AnMAkJxO2ZIOwfsarq9o-0" target="8ugVBGTUYjzquRtOjpoh-7" edge="1">
          <mxGeometry relative="1" as="geometry" />
        </mxCell>
        <mxCell id="8ugVBGTUYjzquRtOjpoh-0" value="Начало" style="ellipse;whiteSpace=wrap;html=1;" parent="WIyWlLk6GJQsqaUBKTNV-1" vertex="1">
          <mxGeometry x="-60" y="40" width="120" height="80" as="geometry" />
        </mxCell>
        <mxCell id="8ugVBGTUYjzquRtOjpoh-1" value="Конец" style="ellipse;whiteSpace=wrap;html=1;" parent="WIyWlLk6GJQsqaUBKTNV-1" vertex="1">
          <mxGeometry x="-61.25" y="1550" width="120" height="80" as="geometry" />
        </mxCell>
        <mxCell id="8ugVBGTUYjzquRtOjpoh-5" value="" style="endArrow=none;dashed=1;html=1;dashPattern=1 3;strokeWidth=2;rounded=0;" parent="WIyWlLk6GJQsqaUBKTNV-1" target="8ugVBGTUYjzquRtOjpoh-6" edge="1">
          <mxGeometry width="50" height="50" relative="1" as="geometry">
            <mxPoint y="130" as="sourcePoint" />
            <mxPoint y="140" as="targetPoint" />
          </mxGeometry>
        </mxCell>
        <mxCell id="8ugVBGTUYjzquRtOjpoh-6" value="&lt;div&gt;#include &amp;lt;iostream&amp;gt;&lt;/div&gt;&lt;div&gt;using namespace std;&lt;/div&gt;&lt;div&gt;int main()&lt;/div&gt;&lt;div&gt;{&lt;/div&gt;&lt;div&gt;&amp;nbsp; &amp;nbsp; setlocale(LC_ALL, &quot;Russian&quot;);&lt;/div&gt;" style="strokeWidth=2;html=1;shape=mxgraph.flowchart.annotation_1;align=left;pointerEvents=1;" parent="WIyWlLk6GJQsqaUBKTNV-1" vertex="1">
          <mxGeometry x="195" y="80" width="50" height="100" as="geometry" />
        </mxCell>
        <mxCell id="8ugVBGTUYjzquRtOjpoh-12" style="edgeStyle=orthogonalEdgeStyle;rounded=0;orthogonalLoop=1;jettySize=auto;html=1;exitX=0.5;exitY=1;exitDx=0;exitDy=0;entryX=0.5;entryY=0;entryDx=0;entryDy=0;" parent="WIyWlLk6GJQsqaUBKTNV-1" source="8ugVBGTUYjzquRtOjpoh-7" edge="1">
          <mxGeometry relative="1" as="geometry">
            <mxPoint x="-2.2737367544323206e-13" y="410" as="targetPoint" />
          </mxGeometry>
        </mxCell>
        <mxCell id="8ugVBGTUYjzquRtOjpoh-7" value="cout &amp;lt;&amp;lt; &quot;Введите 2 числа, по одному в каждой строке: \n&quot;;" style="shape=parallelogram;perimeter=parallelogramPerimeter;whiteSpace=wrap;html=1;fixedSize=1;" parent="WIyWlLk6GJQsqaUBKTNV-1" vertex="1">
          <mxGeometry x="-100" y="320" width="197.5" height="60" as="geometry" />
        </mxCell>
        <mxCell id="8ugVBGTUYjzquRtOjpoh-42" style="edgeStyle=orthogonalEdgeStyle;rounded=0;orthogonalLoop=1;jettySize=auto;html=1;exitX=0.5;exitY=1;exitDx=0;exitDy=0;entryX=0.5;entryY=0;entryDx=0;entryDy=0;" parent="WIyWlLk6GJQsqaUBKTNV-1" source="8ugVBGTUYjzquRtOjpoh-40" edge="1">
          <mxGeometry relative="1" as="geometry">
            <mxPoint x="-2.2737367544323206e-13" y="500" as="targetPoint" />
          </mxGeometry>
        </mxCell>
        <mxCell id="8ugVBGTUYjzquRtOjpoh-40" value="cin &amp;gt;&amp;gt; a &amp;gt;&amp;gt; b;" style="shape=parallelogram;perimeter=parallelogramPerimeter;whiteSpace=wrap;html=1;fixedSize=1;" parent="WIyWlLk6GJQsqaUBKTNV-1" vertex="1">
          <mxGeometry x="-97.5" y="410" width="195" height="60" as="geometry" />
        </mxCell>
        <mxCell id="8ugVBGTUYjzquRtOjpoh-66" style="edgeStyle=orthogonalEdgeStyle;rounded=0;orthogonalLoop=1;jettySize=auto;html=1;exitX=0.5;exitY=1;exitDx=0;exitDy=0;entryX=0.5;entryY=0;entryDx=0;entryDy=0;" parent="WIyWlLk6GJQsqaUBKTNV-1" source="8ugVBGTUYjzquRtOjpoh-64" target="8ugVBGTUYjzquRtOjpoh-65" edge="1">
          <mxGeometry relative="1" as="geometry" />
        </mxCell>
        <mxCell id="8ugVBGTUYjzquRtOjpoh-64" value="cout &amp;lt;&amp;lt; &quot;Введите код операции (1 - &#39;+&#39;, 2 - &#39;-&#39;, 3 - &#39;*&#39;, 4 - &#39;/&#39;): \n&quot;;" style="shape=parallelogram;perimeter=parallelogramPerimeter;whiteSpace=wrap;html=1;fixedSize=1;" parent="WIyWlLk6GJQsqaUBKTNV-1" vertex="1">
          <mxGeometry x="-97.5" y="500" width="195" height="60" as="geometry" />
        </mxCell>
        <mxCell id="8ugVBGTUYjzquRtOjpoh-74" style="edgeStyle=orthogonalEdgeStyle;rounded=0;orthogonalLoop=1;jettySize=auto;html=1;exitX=0.5;exitY=1;exitDx=0;exitDy=0;entryX=0.5;entryY=0;entryDx=0;entryDy=0;" parent="WIyWlLk6GJQsqaUBKTNV-1" source="8ugVBGTUYjzquRtOjpoh-65" target="8ugVBGTUYjzquRtOjpoh-67" edge="1">
          <mxGeometry relative="1" as="geometry" />
        </mxCell>
        <mxCell id="8ugVBGTUYjzquRtOjpoh-65" value="cin &amp;gt;&amp;gt; code;" style="shape=parallelogram;perimeter=parallelogramPerimeter;whiteSpace=wrap;html=1;fixedSize=1;" parent="WIyWlLk6GJQsqaUBKTNV-1" vertex="1">
          <mxGeometry x="-97.5" y="590" width="195" height="60" as="geometry" />
        </mxCell>
        <mxCell id="8ugVBGTUYjzquRtOjpoh-70" style="edgeStyle=orthogonalEdgeStyle;rounded=0;orthogonalLoop=1;jettySize=auto;html=1;exitX=0;exitY=0.5;exitDx=0;exitDy=0;entryX=0.5;entryY=0;entryDx=0;entryDy=0;" parent="WIyWlLk6GJQsqaUBKTNV-1" source="8ugVBGTUYjzquRtOjpoh-67" target="8ugVBGTUYjzquRtOjpoh-68" edge="1">
          <mxGeometry relative="1" as="geometry" />
        </mxCell>
        <mxCell id="8ugVBGTUYjzquRtOjpoh-77" style="edgeStyle=orthogonalEdgeStyle;rounded=0;orthogonalLoop=1;jettySize=auto;html=1;exitX=1;exitY=0.5;exitDx=0;exitDy=0;entryX=0.5;entryY=0;entryDx=0;entryDy=0;" parent="WIyWlLk6GJQsqaUBKTNV-1" source="8ugVBGTUYjzquRtOjpoh-67" target="8ugVBGTUYjzquRtOjpoh-76" edge="1">
          <mxGeometry relative="1" as="geometry" />
        </mxCell>
        <mxCell id="8ugVBGTUYjzquRtOjpoh-67" value="case 1" style="rhombus;whiteSpace=wrap;html=1;" parent="WIyWlLk6GJQsqaUBKTNV-1" vertex="1">
          <mxGeometry x="-70" y="680" width="140" height="80" as="geometry" />
        </mxCell>
        <mxCell id="8ugVBGTUYjzquRtOjpoh-71" style="edgeStyle=orthogonalEdgeStyle;rounded=0;orthogonalLoop=1;jettySize=auto;html=1;exitX=0.5;exitY=1;exitDx=0;exitDy=0;entryX=0.5;entryY=0;entryDx=0;entryDy=0;" parent="WIyWlLk6GJQsqaUBKTNV-1" source="8ugVBGTUYjzquRtOjpoh-68" target="8ugVBGTUYjzquRtOjpoh-69" edge="1">
          <mxGeometry relative="1" as="geometry" />
        </mxCell>
        <mxCell id="8ugVBGTUYjzquRtOjpoh-68" value="ans = a + b;" style="rounded=0;whiteSpace=wrap;html=1;" parent="WIyWlLk6GJQsqaUBKTNV-1" vertex="1">
          <mxGeometry x="-250" y="770" width="120" height="60" as="geometry" />
        </mxCell>
        <mxCell id="8ugVBGTUYjzquRtOjpoh-112" style="edgeStyle=orthogonalEdgeStyle;rounded=0;orthogonalLoop=1;jettySize=auto;html=1;exitX=0.5;exitY=1;exitDx=0;exitDy=0;" parent="WIyWlLk6GJQsqaUBKTNV-1" source="8ugVBGTUYjzquRtOjpoh-69" target="8ugVBGTUYjzquRtOjpoh-1" edge="1">
          <mxGeometry relative="1" as="geometry">
            <Array as="points">
              <mxPoint x="-190" y="1300" />
              <mxPoint y="1300" />
            </Array>
          </mxGeometry>
        </mxCell>
        <mxCell id="8ugVBGTUYjzquRtOjpoh-69" value="cout &amp;lt;&amp;lt; ans &amp;lt;&amp;lt; endl;" style="shape=parallelogram;perimeter=parallelogramPerimeter;whiteSpace=wrap;html=1;fixedSize=1;" parent="WIyWlLk6GJQsqaUBKTNV-1" vertex="1">
          <mxGeometry x="-270" y="880" width="160" height="60" as="geometry" />
        </mxCell>
        <mxCell id="8ugVBGTUYjzquRtOjpoh-72" value="1" style="text;html=1;align=center;verticalAlign=middle;resizable=0;points=[];autosize=1;strokeColor=none;fillColor=none;" parent="WIyWlLk6GJQsqaUBKTNV-1" vertex="1">
          <mxGeometry x="-205" y="700" width="30" height="30" as="geometry" />
        </mxCell>
        <mxCell id="8ugVBGTUYjzquRtOjpoh-81" style="edgeStyle=orthogonalEdgeStyle;rounded=0;orthogonalLoop=1;jettySize=auto;html=1;exitX=0;exitY=0.5;exitDx=0;exitDy=0;entryX=0.5;entryY=0;entryDx=0;entryDy=0;" parent="WIyWlLk6GJQsqaUBKTNV-1" source="8ugVBGTUYjzquRtOjpoh-76" target="8ugVBGTUYjzquRtOjpoh-79" edge="1">
          <mxGeometry relative="1" as="geometry" />
        </mxCell>
        <mxCell id="8ugVBGTUYjzquRtOjpoh-76" value="case 2" style="rhombus;whiteSpace=wrap;html=1;" parent="WIyWlLk6GJQsqaUBKTNV-1" vertex="1">
          <mxGeometry x="140" y="750" width="140" height="80" as="geometry" />
        </mxCell>
        <mxCell id="8ugVBGTUYjzquRtOjpoh-78" style="edgeStyle=orthogonalEdgeStyle;rounded=0;orthogonalLoop=1;jettySize=auto;html=1;exitX=0.5;exitY=1;exitDx=0;exitDy=0;entryX=0.5;entryY=0;entryDx=0;entryDy=0;" parent="WIyWlLk6GJQsqaUBKTNV-1" source="8ugVBGTUYjzquRtOjpoh-79" target="8ugVBGTUYjzquRtOjpoh-80" edge="1">
          <mxGeometry relative="1" as="geometry" />
        </mxCell>
        <mxCell id="8ugVBGTUYjzquRtOjpoh-79" value="ans = a - b;" style="rounded=0;whiteSpace=wrap;html=1;" parent="WIyWlLk6GJQsqaUBKTNV-1" vertex="1">
          <mxGeometry x="20" y="860" width="120" height="60" as="geometry" />
        </mxCell>
        <mxCell id="8ugVBGTUYjzquRtOjpoh-113" style="edgeStyle=orthogonalEdgeStyle;rounded=0;orthogonalLoop=1;jettySize=auto;html=1;exitX=0.5;exitY=1;exitDx=0;exitDy=0;" parent="WIyWlLk6GJQsqaUBKTNV-1" source="8ugVBGTUYjzquRtOjpoh-80" edge="1">
          <mxGeometry relative="1" as="geometry">
            <mxPoint y="1300" as="targetPoint" />
          </mxGeometry>
        </mxCell>
        <mxCell id="8ugVBGTUYjzquRtOjpoh-80" value="cout &amp;lt;&amp;lt; ans &amp;lt;&amp;lt; endl;" style="shape=parallelogram;perimeter=parallelogramPerimeter;whiteSpace=wrap;html=1;fixedSize=1;" parent="WIyWlLk6GJQsqaUBKTNV-1" vertex="1">
          <mxGeometry y="970" width="160" height="60" as="geometry" />
        </mxCell>
        <mxCell id="8ugVBGTUYjzquRtOjpoh-82" style="edgeStyle=orthogonalEdgeStyle;rounded=0;orthogonalLoop=1;jettySize=auto;html=1;exitX=1;exitY=0.5;exitDx=0;exitDy=0;entryX=0.5;entryY=0;entryDx=0;entryDy=0;" parent="WIyWlLk6GJQsqaUBKTNV-1" target="8ugVBGTUYjzquRtOjpoh-84" edge="1">
          <mxGeometry relative="1" as="geometry">
            <mxPoint x="280" y="790" as="sourcePoint" />
          </mxGeometry>
        </mxCell>
        <mxCell id="8ugVBGTUYjzquRtOjpoh-83" style="edgeStyle=orthogonalEdgeStyle;rounded=0;orthogonalLoop=1;jettySize=auto;html=1;exitX=0;exitY=0.5;exitDx=0;exitDy=0;entryX=0.5;entryY=0;entryDx=0;entryDy=0;" parent="WIyWlLk6GJQsqaUBKTNV-1" source="8ugVBGTUYjzquRtOjpoh-84" target="8ugVBGTUYjzquRtOjpoh-86" edge="1">
          <mxGeometry relative="1" as="geometry" />
        </mxCell>
        <mxCell id="8ugVBGTUYjzquRtOjpoh-84" value="case 3" style="rhombus;whiteSpace=wrap;html=1;" parent="WIyWlLk6GJQsqaUBKTNV-1" vertex="1">
          <mxGeometry x="350" y="820" width="140" height="80" as="geometry" />
        </mxCell>
        <mxCell id="8ugVBGTUYjzquRtOjpoh-85" style="edgeStyle=orthogonalEdgeStyle;rounded=0;orthogonalLoop=1;jettySize=auto;html=1;exitX=0.5;exitY=1;exitDx=0;exitDy=0;entryX=0.5;entryY=0;entryDx=0;entryDy=0;" parent="WIyWlLk6GJQsqaUBKTNV-1" source="8ugVBGTUYjzquRtOjpoh-86" target="8ugVBGTUYjzquRtOjpoh-87" edge="1">
          <mxGeometry relative="1" as="geometry" />
        </mxCell>
        <mxCell id="8ugVBGTUYjzquRtOjpoh-86" value="ans = a * b;" style="rounded=0;whiteSpace=wrap;html=1;" parent="WIyWlLk6GJQsqaUBKTNV-1" vertex="1">
          <mxGeometry x="230" y="930" width="120" height="60" as="geometry" />
        </mxCell>
        <mxCell id="8ugVBGTUYjzquRtOjpoh-116" style="edgeStyle=orthogonalEdgeStyle;rounded=0;orthogonalLoop=1;jettySize=auto;html=1;exitX=0.5;exitY=1;exitDx=0;exitDy=0;" parent="WIyWlLk6GJQsqaUBKTNV-1" source="8ugVBGTUYjzquRtOjpoh-87" edge="1">
          <mxGeometry relative="1" as="geometry">
            <mxPoint x="291" y="1330" as="targetPoint" />
          </mxGeometry>
        </mxCell>
        <mxCell id="8ugVBGTUYjzquRtOjpoh-87" value="cout &amp;lt;&amp;lt; ans &amp;lt;&amp;lt; endl;" style="shape=parallelogram;perimeter=parallelogramPerimeter;whiteSpace=wrap;html=1;fixedSize=1;" parent="WIyWlLk6GJQsqaUBKTNV-1" vertex="1">
          <mxGeometry x="210" y="1040" width="160" height="60" as="geometry" />
        </mxCell>
        <mxCell id="8ugVBGTUYjzquRtOjpoh-88" value="0" style="text;html=1;align=center;verticalAlign=middle;resizable=0;points=[];autosize=1;strokeColor=none;fillColor=none;" parent="WIyWlLk6GJQsqaUBKTNV-1" vertex="1">
          <mxGeometry x="195" y="700" width="30" height="30" as="geometry" />
        </mxCell>
        <mxCell id="8ugVBGTUYjzquRtOjpoh-89" value="1" style="text;html=1;align=center;verticalAlign=middle;resizable=0;points=[];autosize=1;strokeColor=none;fillColor=none;" parent="WIyWlLk6GJQsqaUBKTNV-1" vertex="1">
          <mxGeometry x="70" y="760" width="30" height="30" as="geometry" />
        </mxCell>
        <mxCell id="8ugVBGTUYjzquRtOjpoh-92" value="1" style="text;html=1;align=center;verticalAlign=middle;resizable=0;points=[];autosize=1;strokeColor=none;fillColor=none;" parent="WIyWlLk6GJQsqaUBKTNV-1" vertex="1">
          <mxGeometry x="275" y="840" width="30" height="30" as="geometry" />
        </mxCell>
        <mxCell id="8ugVBGTUYjzquRtOjpoh-93" value="0" style="text;html=1;align=center;verticalAlign=middle;resizable=0;points=[];autosize=1;strokeColor=none;fillColor=none;" parent="WIyWlLk6GJQsqaUBKTNV-1" vertex="1">
          <mxGeometry x="399" y="770" width="30" height="30" as="geometry" />
        </mxCell>
        <mxCell id="8ugVBGTUYjzquRtOjpoh-94" style="edgeStyle=orthogonalEdgeStyle;rounded=0;orthogonalLoop=1;jettySize=auto;html=1;exitX=1;exitY=0.5;exitDx=0;exitDy=0;entryX=0.5;entryY=0;entryDx=0;entryDy=0;" parent="WIyWlLk6GJQsqaUBKTNV-1" target="8ugVBGTUYjzquRtOjpoh-96" edge="1">
          <mxGeometry relative="1" as="geometry">
            <mxPoint x="490" y="860" as="sourcePoint" />
          </mxGeometry>
        </mxCell>
        <mxCell id="8ugVBGTUYjzquRtOjpoh-95" style="edgeStyle=orthogonalEdgeStyle;rounded=0;orthogonalLoop=1;jettySize=auto;html=1;exitX=0;exitY=0.5;exitDx=0;exitDy=0;entryX=0.5;entryY=0;entryDx=0;entryDy=0;" parent="WIyWlLk6GJQsqaUBKTNV-1" source="8ugVBGTUYjzquRtOjpoh-96" edge="1">
          <mxGeometry relative="1" as="geometry">
            <mxPoint x="500" y="1000" as="targetPoint" />
          </mxGeometry>
        </mxCell>
        <mxCell id="8ugVBGTUYjzquRtOjpoh-108" style="edgeStyle=orthogonalEdgeStyle;rounded=0;orthogonalLoop=1;jettySize=auto;html=1;exitX=1;exitY=0.5;exitDx=0;exitDy=0;entryX=0.5;entryY=0;entryDx=0;entryDy=0;" parent="WIyWlLk6GJQsqaUBKTNV-1" source="8ugVBGTUYjzquRtOjpoh-96" target="8ugVBGTUYjzquRtOjpoh-107" edge="1">
          <mxGeometry relative="1" as="geometry" />
        </mxCell>
        <mxCell id="8ugVBGTUYjzquRtOjpoh-96" value="case 4" style="rhombus;whiteSpace=wrap;html=1;" parent="WIyWlLk6GJQsqaUBKTNV-1" vertex="1">
          <mxGeometry x="560" y="890" width="140" height="80" as="geometry" />
        </mxCell>
        <mxCell id="8ugVBGTUYjzquRtOjpoh-97" value="0" style="text;html=1;align=center;verticalAlign=middle;resizable=0;points=[];autosize=1;strokeColor=none;fillColor=none;" parent="WIyWlLk6GJQsqaUBKTNV-1" vertex="1">
          <mxGeometry x="609" y="840" width="30" height="30" as="geometry" />
        </mxCell>
        <mxCell id="8ugVBGTUYjzquRtOjpoh-106" style="edgeStyle=orthogonalEdgeStyle;rounded=0;orthogonalLoop=1;jettySize=auto;html=1;exitX=1;exitY=0.5;exitDx=0;exitDy=0;entryX=0.5;entryY=0;entryDx=0;entryDy=0;" parent="WIyWlLk6GJQsqaUBKTNV-1" source="8ugVBGTUYjzquRtOjpoh-99" target="8ugVBGTUYjzquRtOjpoh-104" edge="1">
          <mxGeometry relative="1" as="geometry" />
        </mxCell>
        <mxCell id="8ugVBGTUYjzquRtOjpoh-99" value="if (b == 0)" style="rhombus;whiteSpace=wrap;html=1;" parent="WIyWlLk6GJQsqaUBKTNV-1" vertex="1">
          <mxGeometry x="430" y="1000" width="140" height="80" as="geometry" />
        </mxCell>
        <mxCell id="8ugVBGTUYjzquRtOjpoh-117" style="edgeStyle=orthogonalEdgeStyle;rounded=0;orthogonalLoop=1;jettySize=auto;html=1;exitX=0.5;exitY=1;exitDx=0;exitDy=0;" parent="WIyWlLk6GJQsqaUBKTNV-1" source="8ugVBGTUYjzquRtOjpoh-100" edge="1">
          <mxGeometry relative="1" as="geometry">
            <mxPoint x="411" y="1330" as="targetPoint" />
          </mxGeometry>
        </mxCell>
        <mxCell id="8ugVBGTUYjzquRtOjpoh-100" value="cout &amp;lt;&amp;lt; &quot;Деление на 0 невозможно&quot; &amp;lt;&amp;lt; endl;" style="shape=parallelogram;perimeter=parallelogramPerimeter;whiteSpace=wrap;html=1;fixedSize=1;" parent="WIyWlLk6GJQsqaUBKTNV-1" vertex="1">
          <mxGeometry x="305" y="1170" width="210" height="60" as="geometry" />
        </mxCell>
        <mxCell id="8ugVBGTUYjzquRtOjpoh-102" style="edgeStyle=orthogonalEdgeStyle;rounded=0;orthogonalLoop=1;jettySize=auto;html=1;exitX=0;exitY=0.5;exitDx=0;exitDy=0;entryX=0.461;entryY=-0.026;entryDx=0;entryDy=0;entryPerimeter=0;" parent="WIyWlLk6GJQsqaUBKTNV-1" source="8ugVBGTUYjzquRtOjpoh-99" target="8ugVBGTUYjzquRtOjpoh-100" edge="1">
          <mxGeometry relative="1" as="geometry" />
        </mxCell>
        <mxCell id="8ugVBGTUYjzquRtOjpoh-103" style="edgeStyle=orthogonalEdgeStyle;rounded=0;orthogonalLoop=1;jettySize=auto;html=1;exitX=0.5;exitY=1;exitDx=0;exitDy=0;entryX=0.5;entryY=0;entryDx=0;entryDy=0;" parent="WIyWlLk6GJQsqaUBKTNV-1" source="8ugVBGTUYjzquRtOjpoh-104" target="8ugVBGTUYjzquRtOjpoh-105" edge="1">
          <mxGeometry relative="1" as="geometry" />
        </mxCell>
        <mxCell id="8ugVBGTUYjzquRtOjpoh-104" value="ans = a / b;" style="rounded=0;whiteSpace=wrap;html=1;" parent="WIyWlLk6GJQsqaUBKTNV-1" vertex="1">
          <mxGeometry x="580" y="1080" width="120" height="60" as="geometry" />
        </mxCell>
        <mxCell id="8ugVBGTUYjzquRtOjpoh-118" style="edgeStyle=orthogonalEdgeStyle;rounded=0;orthogonalLoop=1;jettySize=auto;html=1;exitX=0.5;exitY=1;exitDx=0;exitDy=0;" parent="WIyWlLk6GJQsqaUBKTNV-1" source="8ugVBGTUYjzquRtOjpoh-105" edge="1">
          <mxGeometry relative="1" as="geometry">
            <mxPoint x="641" y="1330" as="targetPoint" />
          </mxGeometry>
        </mxCell>
        <mxCell id="8ugVBGTUYjzquRtOjpoh-105" value="cout &amp;lt;&amp;lt; ans &amp;lt;&amp;lt; endl;" style="shape=parallelogram;perimeter=parallelogramPerimeter;whiteSpace=wrap;html=1;fixedSize=1;" parent="WIyWlLk6GJQsqaUBKTNV-1" vertex="1">
          <mxGeometry x="560" y="1170" width="160" height="60" as="geometry" />
        </mxCell>
        <mxCell id="8ugVBGTUYjzquRtOjpoh-115" style="edgeStyle=orthogonalEdgeStyle;rounded=0;orthogonalLoop=1;jettySize=auto;html=1;exitX=0.5;exitY=1;exitDx=0;exitDy=0;" parent="WIyWlLk6GJQsqaUBKTNV-1" source="8ugVBGTUYjzquRtOjpoh-107" edge="1">
          <mxGeometry relative="1" as="geometry">
            <mxPoint x="-4" y="1330" as="targetPoint" />
            <Array as="points">
              <mxPoint x="794" y="1330" />
            </Array>
          </mxGeometry>
        </mxCell>
        <mxCell id="8ugVBGTUYjzquRtOjpoh-107" value="cout &amp;lt;&amp;lt; &quot;Неверный код операции \n&quot;;" style="shape=parallelogram;perimeter=parallelogramPerimeter;whiteSpace=wrap;html=1;fixedSize=1;" parent="WIyWlLk6GJQsqaUBKTNV-1" vertex="1">
          <mxGeometry x="707" y="1000" width="173" height="60" as="geometry" />
        </mxCell>
        <mxCell id="8ugVBGTUYjzquRtOjpoh-109" value="0" style="text;html=1;align=center;verticalAlign=middle;resizable=0;points=[];autosize=1;strokeColor=none;fillColor=none;" parent="WIyWlLk6GJQsqaUBKTNV-1" vertex="1">
          <mxGeometry x="770" y="900" width="30" height="30" as="geometry" />
        </mxCell>
        <mxCell id="8ugVBGTUYjzquRtOjpoh-110" value="0" style="text;html=1;align=center;verticalAlign=middle;resizable=0;points=[];autosize=1;strokeColor=none;fillColor=none;" parent="WIyWlLk6GJQsqaUBKTNV-1" vertex="1">
          <mxGeometry x="615" y="1010" width="30" height="30" as="geometry" />
        </mxCell>
        <mxCell id="8ugVBGTUYjzquRtOjpoh-111" value="1" style="text;html=1;align=center;verticalAlign=middle;resizable=0;points=[];autosize=1;strokeColor=none;fillColor=none;" parent="WIyWlLk6GJQsqaUBKTNV-1" vertex="1">
          <mxGeometry x="395" y="1010" width="30" height="30" as="geometry" />
        </mxCell>
        <mxCell id="8ugVBGTUYjzquRtOjpoh-119" value="" style="endArrow=none;dashed=1;html=1;dashPattern=1 3;strokeWidth=2;rounded=0;" parent="WIyWlLk6GJQsqaUBKTNV-1" target="8ugVBGTUYjzquRtOjpoh-120" edge="1">
          <mxGeometry width="50" height="50" relative="1" as="geometry">
            <mxPoint y="1470" as="sourcePoint" />
            <mxPoint y="1470" as="targetPoint" />
          </mxGeometry>
        </mxCell>
        <mxCell id="8ugVBGTUYjzquRtOjpoh-120" value="&lt;div&gt;&amp;nbsp; &amp;nbsp; return 0;&lt;/div&gt;&lt;div&gt;}&lt;/div&gt;" style="strokeWidth=2;html=1;shape=mxgraph.flowchart.annotation_1;align=left;pointerEvents=1;" parent="WIyWlLk6GJQsqaUBKTNV-1" vertex="1">
          <mxGeometry x="140" y="1420" width="50" height="100" as="geometry" />
        </mxCell>
        <mxCell id="8ugVBGTUYjzquRtOjpoh-121" value="" style="endArrow=none;dashed=1;html=1;dashPattern=1 3;strokeWidth=2;rounded=0;" parent="WIyWlLk6GJQsqaUBKTNV-1" edge="1">
          <mxGeometry width="50" height="50" relative="1" as="geometry">
            <mxPoint x="140" y="660" as="sourcePoint" />
            <mxPoint y="660" as="targetPoint" />
          </mxGeometry>
        </mxCell>
        <mxCell id="8ugVBGTUYjzquRtOjpoh-122" value="&lt;div&gt;switch (code)&lt;/div&gt;&lt;div&gt;{&lt;/div&gt;" style="strokeWidth=2;html=1;shape=mxgraph.flowchart.annotation_1;align=left;pointerEvents=1;" parent="WIyWlLk6GJQsqaUBKTNV-1" vertex="1">
          <mxGeometry x="145" y="600" width="50" height="100" as="geometry" />
        </mxCell>
        <mxCell id="8ugVBGTUYjzquRtOjpoh-123" value="" style="endArrow=none;dashed=1;html=1;dashPattern=1 3;strokeWidth=2;rounded=0;" parent="WIyWlLk6GJQsqaUBKTNV-1" edge="1">
          <mxGeometry width="50" height="50" relative="1" as="geometry">
            <mxPoint x="-130" y="1090" as="sourcePoint" />
            <mxPoint x="-190" y="1090" as="targetPoint" />
          </mxGeometry>
        </mxCell>
        <mxCell id="8ugVBGTUYjzquRtOjpoh-124" value="break;" style="strokeWidth=2;html=1;shape=mxgraph.flowchart.annotation_1;align=left;pointerEvents=1;" parent="WIyWlLk6GJQsqaUBKTNV-1" vertex="1">
          <mxGeometry x="-130" y="1040" width="50" height="100" as="geometry" />
        </mxCell>
        <mxCell id="8ugVBGTUYjzquRtOjpoh-125" value="" style="endArrow=none;dashed=1;html=1;dashPattern=1 3;strokeWidth=2;rounded=0;" parent="WIyWlLk6GJQsqaUBKTNV-1" edge="1">
          <mxGeometry width="50" height="50" relative="1" as="geometry">
            <mxPoint x="60" y="1230" as="sourcePoint" />
            <mxPoint y="1230" as="targetPoint" />
          </mxGeometry>
        </mxCell>
        <mxCell id="8ugVBGTUYjzquRtOjpoh-126" value="break;" style="strokeWidth=2;html=1;shape=mxgraph.flowchart.annotation_1;align=left;pointerEvents=1;" parent="WIyWlLk6GJQsqaUBKTNV-1" vertex="1">
          <mxGeometry x="60" y="1180" width="50" height="100" as="geometry" />
        </mxCell>
        <mxCell id="8ugVBGTUYjzquRtOjpoh-127" value="" style="endArrow=none;dashed=1;html=1;dashPattern=1 3;strokeWidth=2;rounded=0;" parent="WIyWlLk6GJQsqaUBKTNV-1" edge="1">
          <mxGeometry width="50" height="50" relative="1" as="geometry">
            <mxPoint x="349" y="1284.5" as="sourcePoint" />
            <mxPoint x="289" y="1284.5" as="targetPoint" />
          </mxGeometry>
        </mxCell>
        <mxCell id="8ugVBGTUYjzquRtOjpoh-128" value="break;" style="strokeWidth=2;html=1;shape=mxgraph.flowchart.annotation_1;align=left;pointerEvents=1;" parent="WIyWlLk6GJQsqaUBKTNV-1" vertex="1">
          <mxGeometry x="349" y="1250" width="31" height="70" as="geometry" />
        </mxCell>
        <mxCell id="8ugVBGTUYjzquRtOjpoh-129" value="" style="endArrow=none;dashed=1;html=1;dashPattern=1 3;strokeWidth=2;rounded=0;" parent="WIyWlLk6GJQsqaUBKTNV-1" edge="1">
          <mxGeometry width="50" height="50" relative="1" as="geometry">
            <mxPoint x="474" y="1284.5" as="sourcePoint" />
            <mxPoint x="414" y="1284.5" as="targetPoint" />
          </mxGeometry>
        </mxCell>
        <mxCell id="8ugVBGTUYjzquRtOjpoh-130" value="break;" style="strokeWidth=2;html=1;shape=mxgraph.flowchart.annotation_1;align=left;pointerEvents=1;" parent="WIyWlLk6GJQsqaUBKTNV-1" vertex="1">
          <mxGeometry x="474" y="1250" width="31" height="70" as="geometry" />
        </mxCell>
        <mxCell id="8ugVBGTUYjzquRtOjpoh-132" value="" style="endArrow=none;dashed=1;html=1;dashPattern=1 3;strokeWidth=2;rounded=0;" parent="WIyWlLk6GJQsqaUBKTNV-1" edge="1">
          <mxGeometry width="50" height="50" relative="1" as="geometry">
            <mxPoint x="705" y="1284.5" as="sourcePoint" />
            <mxPoint x="645" y="1284.5" as="targetPoint" />
          </mxGeometry>
        </mxCell>
        <mxCell id="8ugVBGTUYjzquRtOjpoh-133" value="break;" style="strokeWidth=2;html=1;shape=mxgraph.flowchart.annotation_1;align=left;pointerEvents=1;" parent="WIyWlLk6GJQsqaUBKTNV-1" vertex="1">
          <mxGeometry x="705" y="1250" width="31" height="70" as="geometry" />
        </mxCell>
        <mxCell id="8ugVBGTUYjzquRtOjpoh-134" value="" style="endArrow=none;dashed=1;html=1;dashPattern=1 3;strokeWidth=2;rounded=0;" parent="WIyWlLk6GJQsqaUBKTNV-1" edge="1">
          <mxGeometry width="50" height="50" relative="1" as="geometry">
            <mxPoint x="860" y="954.5" as="sourcePoint" />
            <mxPoint x="800" y="954.5" as="targetPoint" />
          </mxGeometry>
        </mxCell>
        <mxCell id="8ugVBGTUYjzquRtOjpoh-135" value="default" style="strokeWidth=2;html=1;shape=mxgraph.flowchart.annotation_1;align=left;pointerEvents=1;" parent="WIyWlLk6GJQsqaUBKTNV-1" vertex="1">
          <mxGeometry x="860" y="920" width="31" height="70" as="geometry" />
        </mxCell>
        <mxCell id="AnMAkJxO2ZIOwfsarq9o-1" value="" style="edgeStyle=orthogonalEdgeStyle;rounded=0;orthogonalLoop=1;jettySize=auto;html=1;exitX=0.5;exitY=1;exitDx=0;exitDy=0;" edge="1" parent="WIyWlLk6GJQsqaUBKTNV-1" source="AnMAkJxO2ZIOwfsarq9o-2" target="AnMAkJxO2ZIOwfsarq9o-0">
          <mxGeometry relative="1" as="geometry">
            <mxPoint y="140" as="sourcePoint" />
            <mxPoint x="-1" y="320" as="targetPoint" />
          </mxGeometry>
        </mxCell>
        <mxCell id="AnMAkJxO2ZIOwfsarq9o-0" value="&lt;span style=&quot;text-align: left; text-wrap-mode: nowrap;&quot;&gt;int code;&lt;/span&gt;" style="rounded=0;whiteSpace=wrap;html=1;" vertex="1" parent="WIyWlLk6GJQsqaUBKTNV-1">
          <mxGeometry x="-61.25" y="230" width="120" height="60" as="geometry" />
        </mxCell>
        <mxCell id="AnMAkJxO2ZIOwfsarq9o-3" value="" style="edgeStyle=orthogonalEdgeStyle;rounded=0;orthogonalLoop=1;jettySize=auto;html=1;exitX=0.5;exitY=1;exitDx=0;exitDy=0;" edge="1" parent="WIyWlLk6GJQsqaUBKTNV-1" source="8ugVBGTUYjzquRtOjpoh-0" target="AnMAkJxO2ZIOwfsarq9o-2">
          <mxGeometry relative="1" as="geometry">
            <mxPoint y="120" as="sourcePoint" />
            <mxPoint x="-1" y="210" as="targetPoint" />
          </mxGeometry>
        </mxCell>
        <mxCell id="AnMAkJxO2ZIOwfsarq9o-2" value="&lt;span style=&quot;text-align: left; text-wrap-mode: nowrap;&quot;&gt;float a, b, ans;&lt;/span&gt;" style="rounded=0;whiteSpace=wrap;html=1;" vertex="1" parent="WIyWlLk6GJQsqaUBKTNV-1">
          <mxGeometry x="-61.25" y="140" width="120" height="60" as="geometry" />
        </mxCell>
      </root>
    </mxGraphModel>
  </diagram>
</mxfile>
